<svg width="115" height="80" viewBox="0 0 115 80" fill="none" xmlns="http://www.w3.org/2000/svg">
<g clip-path="url(#clip0)">
<path fill-rule="evenodd" clip-rule="evenodd" d="M115 39.2282C115 31.0504 111.039 24.5977 103.468 24.5977C95.8653 24.5977 91.2653 31.0504 91.2653 39.1643C91.2653 48.7796 96.6958 53.6352 104.49 53.6352C108.292 53.6352 111.167 52.7727 113.339 51.5588V45.1699C111.167 46.256 108.675 46.9268 105.512 46.9268C102.414 46.9268 99.6666 45.8407 99.3153 42.0713H114.936C114.936 41.656 115 39.9949 115 39.2282ZM99.2194 36.1935C99.2194 32.5838 101.424 31.0824 103.436 31.0824C105.385 31.0824 107.461 32.5838 107.461 36.1935H99.2194Z" fill="#6772E5"/>
<path fill-rule="evenodd" clip-rule="evenodd" d="M78.9348 24.5977C75.8042 24.5977 73.7917 26.0671 72.6736 27.0893L72.2584 25.1088H65.2306V62.356L73.2167 60.6629L73.2486 51.6227C74.3986 52.4532 76.0917 53.6352 78.9028 53.6352C84.6209 53.6352 89.8278 49.0352 89.8278 38.9088C89.7959 29.6449 84.525 24.5977 78.9348 24.5977ZM77.0181 46.6074C75.1334 46.6074 74.0153 45.9365 73.2486 45.106L73.2167 33.2546C74.0473 32.3282 75.1973 31.6893 77.0181 31.6893C79.925 31.6893 81.9375 34.9477 81.9375 39.1324C81.9375 43.4129 79.957 46.6074 77.0181 46.6074Z" fill="#6772E5"/>
<path fill-rule="evenodd" clip-rule="evenodd" d="M62.2598 20.9886V14.5039L54.2417 16.197V22.7136L62.2598 20.9886Z" fill="#6772E5"/>
<path d="M62.2598 25.1406H54.2417V53.092H62.2598V25.1406Z" fill="#6772E5"/>
<path fill-rule="evenodd" clip-rule="evenodd" d="M45.6487 27.5056L45.1376 25.1417H38.2375V53.0931H46.2237V34.1501C48.1084 31.6903 51.3028 32.1376 52.2931 32.4889V25.1417C51.2709 24.7584 47.5334 24.0556 45.6487 27.5056Z" fill="#6772E5"/>
<path fill-rule="evenodd" clip-rule="evenodd" d="M29.6764 18.209L21.8819 19.8701L21.85 45.4576C21.85 50.1854 25.3958 53.6673 30.1236 53.6673C32.743 53.6673 34.6597 53.1881 35.7139 52.6131V46.1284C34.6916 46.5437 29.6444 48.0131 29.6444 43.2854V31.9451H35.7139V25.1409H29.6444L29.6764 18.209Z" fill="#6772E5"/>
<path fill-rule="evenodd" clip-rule="evenodd" d="M8.08194 33.2546C8.08194 32.0088 9.10417 31.5296 10.7972 31.5296C13.225 31.5296 16.2917 32.2643 18.7194 33.574V26.0671C16.0681 25.0129 13.4486 24.5977 10.7972 24.5977C4.3125 24.5977 0 27.9838 0 33.6379C0 42.4546 12.1389 41.049 12.1389 44.8504C12.1389 46.3199 10.8611 46.799 9.07222 46.799C6.42083 46.799 3.03472 45.7129 0.351388 44.2435V51.8463C3.32222 53.124 6.325 53.6671 9.07222 53.6671C15.7167 53.6671 20.2847 50.3768 20.2847 44.6588C20.2528 35.1393 8.08194 36.8324 8.08194 33.2546Z" fill="#6772E5"/>
</g>
<defs>
<clipPath id="clip0">
<rect width="115" height="80" fill="white"/>
</clipPath>
</defs>
</svg>