<?xml version="1.0" standalone="no"?>
<!DOCTYPE svg PUBLIC "-//W3C//DTD SVG 20010904//EN"
 "http://www.w3.org/TR/2001/REC-SVG-20010904/DTD/svg10.dtd">
<svg version="1.0" xmlns="http://www.w3.org/2000/svg"
 width="610.000000pt" height="182.000000pt" viewBox="0 0 610.000000 182.000000"
 preserveAspectRatio="xMidYMid meet">

<g transform="translate(0.000000,182.000000) scale(0.100000,-0.100000)"
fill="#000000" stroke="none">
<path d="M2302 1807 c-48 -15 -99 -77 -107 -129 -3 -24 -5 -380 -3 -793 l3
-750 23 -38 c30 -47 68 -67 131 -68 53 -2 118 28 113 50 -1 7 2 10 8 6 6 -4
17 9 25 29 13 31 15 142 13 819 l-3 784 -27 35 c-18 24 -44 41 -75 52 -52 18
-55 18 -101 3z"/>
<path d="M2780 1813 c-56 -20 -83 -40 -105 -78 l-25 -42 0 -774 c0 -734 1
-776 19 -809 28 -54 74 -80 140 -80 72 0 115 26 141 83 19 40 20 74 20 807 0
741 -1 767 -20 804 -21 43 -48 65 -100 83 -38 14 -47 14 -70 6z"/>
<path d="M5404 1801 c-48 -22 -80 -60 -94 -112 -7 -24 -9 -301 -8 -791 3 -710
4 -755 22 -790 25 -52 77 -82 141 -82 67 0 114 27 143 84 l22 44 0 767 0 766
-23 43 c-16 31 -36 51 -68 67 -54 27 -82 28 -135 4z"/>
<path d="M5851 1797 c-32 -16 -52 -36 -68 -67 l-23 -43 0 -766 0 -767 23 -44
c30 -61 96 -95 164 -85 58 8 115 61 132 120 14 50 15 1481 1 1539 -12 54 -38
87 -90 114 -55 28 -83 27 -139 -1z"/>
<path d="M422 1284 c3 -5 -16 -10 -43 -11 -63 -2 -161 -49 -220 -106 -68 -65
-100 -138 -107 -243 -3 -60 -2 -85 6 -81 6 5 8 0 5 -12 -11 -44 109 -203 139
-185 7 4 8 3 4 -4 -6 -11 6 -16 19 -9 2 1 10 -5 17 -14 15 -18 167 -88 200
-92 13 -1 25 -4 28 -7 3 -3 29 -16 58 -30 60 -27 102 -70 102 -104 0 -36 -37
-74 -82 -87 -63 -17 -129 -2 -241 54 -161 80 -233 70 -285 -37 -23 -47 -23
-50 -7 -92 40 -105 221 -196 421 -211 204 -16 402 83 472 235 21 47 26 72 26
142 1 109 -25 171 -97 236 -53 48 -209 130 -227 119 -5 -3 -10 -2 -10 3 0 5
-34 22 -75 37 -42 15 -91 38 -111 51 -19 13 -38 24 -42 24 -4 0 -8 17 -10 39
-5 82 73 125 176 96 31 -9 67 -17 79 -18 11 -1 19 -5 17 -8 -6 -10 95 -51 138
-56 57 -8 131 47 120 90 -1 4 2 7 8 7 16 0 11 72 -8 110 -10 19 -23 34 -31 32
-7 -1 -10 2 -6 7 8 14 -75 73 -92 66 -8 -2 -12 -1 -9 4 11 17 -135 53 -236 59
-59 3 -99 1 -96 -4z"/>
<path d="M1463 1283 c3 -5 -5 -8 -21 -5 -38 5 -143 -32 -207 -72 -132 -85
-215 -193 -266 -349 -29 -89 -36 -273 -14 -373 53 -238 230 -411 470 -460 236
-48 581 61 655 207 20 39 27 95 11 85 -5 -4 -7 2 -4 13 7 27 -58 88 -103 97
-31 6 -52 -2 -157 -54 -154 -77 -230 -93 -327 -68 -77 20 -142 56 -172 96 -11
16 -26 26 -31 23 -6 -3 -7 -2 -4 4 3 5 0 27 -8 49 -8 21 -14 45 -15 52 0 9 79
12 363 12 199 0 380 5 401 10 64 14 80 38 84 127 5 90 -9 164 -48 249 -70 155
-208 283 -361 334 -68 23 -257 41 -246 23z m156 -279 c68 -20 132 -83 160
-160 35 -91 56 -84 -250 -84 l-271 0 7 33 c13 55 52 122 97 162 24 22 42 43
41 47 -2 4 3 5 10 3 6 -3 26 -1 42 4 46 14 106 13 164 -5z"/>
<path d="M3516 1275 c-105 -27 -185 -73 -266 -155 -123 -124 -178 -252 -187
-436 -7 -139 12 -235 69 -353 129 -262 425 -382 718 -288 168 53 241 146 194
248 -41 92 -92 104 -239 54 -89 -31 -118 -36 -161 -32 -96 10 -181 75 -227
175 -18 39 -22 66 -22 162 0 111 1 118 33 182 37 76 84 120 151 143 66 22 126
18 221 -15 112 -39 159 -39 203 0 74 65 72 169 -5 235 -89 76 -336 117 -482
80z"/>
<path d="M4506 1274 c-193 -47 -349 -198 -424 -413 -24 -68 -26 -90 -26 -216
0 -125 3 -149 27 -221 90 -271 327 -426 627 -410 185 9 342 68 442 165 55 54
58 59 58 106 0 56 -21 96 -66 126 -47 30 -83 23 -210 -41 -130 -65 -198 -81
-286 -70 -123 17 -219 88 -250 187 l-15 48 391 5 c428 5 427 5 452 65 44 105
-9 303 -119 452 -137 184 -378 271 -601 217z m261 -285 c66 -32 123 -111 138
-192 l7 -37 -266 0 c-296 0 -277 -5 -251 71 57 160 222 231 372 158z"/>
</g>
</svg>
